HIERARCHY
ROOT hips_JNT
{
    OFFSET 0 0 0
    CHANNELS 6 Xposition Yposition Zposition Zrotation Xrotation Yrotation
    JOINT spine_JNT
    {
        OFFSET -2.09235e-06 11.8934 0.353976
        CHANNELS 3 Zrotation Xrotation Yrotation
        JOINT spine1_JNT
        {
            OFFSET -1.26041e-06 18.6411 -1.28445
            CHANNELS 3 Zrotation Xrotation Yrotation
            JOINT spine2_JNT
            {
                OFFSET 0.00502016 12.8711 -1.94892
                CHANNELS 3 Zrotation Xrotation Yrotation
                JOINT neck_JNT
                {
                    OFFSET 0.0058107 14.8928 -2.30562
                    CHANNELS 3 Zrotation Xrotation Yrotation
                    JOINT head_JNT
                    {
                        OFFSET 0.00339375 9.1392 0.0642024
                        CHANNELS 3 Zrotation Xrotation Yrotation
                        End Site
                        {
                            OFFSET 0 0 0
                        }
                    }
                }
                JOINT l_shoulder_JNT
                {
                    OFFSET 3.67433 11.8096 0.716738
                    CHANNELS 3 Zrotation Xrotation Yrotation
                    JOINT l_arm_JNT
                    {
                        OFFSET 13.2658 -1.17667 -7.56709
                        CHANNELS 3 Zrotation Xrotation Yrotation
                        JOINT l_forearm_JNT
                        {
                            OFFSET 29.4417 -0.0109553 0.00339672
                            CHANNELS 3 Zrotation Xrotation Yrotation
                            JOINT l_hand_JNT
                            {
                                OFFSET 26.1766 -0.0097394 0.00303686
                                CHANNELS 3 Zrotation Xrotation Yrotation
                                JOINT l_handThumb1_JNT
                                {
                                    OFFSET 4.74579 -1.93115 2.54528
                                    CHANNELS 3 Zrotation Xrotation Yrotation
                                    JOINT l_handThumb2_JNT
                                    {
                                        OFFSET 2.70336 -1.23636 2.29439
                                        CHANNELS 3 Zrotation Xrotation Yrotation
                                        JOINT l_handThumb3_JNT
                                        {
                                            OFFSET 3.16268 -1.90277 1.38406
                                            CHANNELS 3 Zrotation Xrotation Yrotation
                                            End Site
                                            {
                                                OFFSET 0 0 0
                                            }
                                        }
                                    }
                                }
                                JOINT l_handIndex1_JNT
                                {
                                    OFFSET 11.688 -0.350833 2.67938
                                    CHANNELS 3 Zrotation Xrotation Yrotation
                                    JOINT l_handIndex2_JNT
                                    {
                                        OFFSET 4.15632 -0.00733137 0.188317
                                        CHANNELS 3 Zrotation Xrotation Yrotation
                                        JOINT l_handIndex3_JNT
                                        {
                                            OFFSET 3.2907 -0.0368237 0.12604
                                            CHANNELS 3 Zrotation Xrotation Yrotation
                                            End Site
                                            {
                                                OFFSET 0 0 0
                                            }
                                        }
                                    }
                                }
                                JOINT l_handMiddle1_JNT
                                {
                                    OFFSET 11.9542 0.363231 0.158637
                                    CHANNELS 3 Zrotation Xrotation Yrotation
                                    JOINT l_handMiddle2_JNT
                                    {
                                        OFFSET 4.50233 -0.022161 0.0750706
                                        CHANNELS 3 Zrotation Xrotation Yrotation
                                        JOINT l_handMiddle3_JNT
                                        {
                                            OFFSET 3.54008 -0.0390291 0.0604741
                                            CHANNELS 3 Zrotation Xrotation Yrotation
                                            End Site
                                            {
                                                OFFSET 0 0 0
                                            }
                                        }
                                    }
                                }
                                JOINT l_handRing1_JNT
                                {
                                    OFFSET 11.41 0.0918627 -2.13364
                                    CHANNELS 3 Zrotation Xrotation Yrotation
                                    JOINT l_handRing2_JNT
                                    {
                                        OFFSET 4.29875 -0.0437379 -0.0229135
                                        CHANNELS 3 Zrotation Xrotation Yrotation
                                        JOINT l_handRing3_JNT
                                        {
                                            OFFSET 3.37301 -0.0678539 -0.00969693
                                            CHANNELS 3 Zrotation Xrotation Yrotation
                                            End Site
                                            {
                                                OFFSET 0 0 0
                                            }
                                        }
                                    }
                                }
                                JOINT l_handPinky1_JNT
                                {
                                    OFFSET 10.2731 -0.384104 -4.004
                                    CHANNELS 3 Zrotation Xrotation Yrotation
                                    JOINT l_handPinky2_JNT
                                    {
                                        OFFSET 3.45849 0.00594854 -0.216508
                                        CHANNELS 3 Zrotation Xrotation Yrotation
                                        JOINT l_handPinky3_JNT
                                        {
                                            OFFSET 2.89208 0.0147462 -0.172339
                                            CHANNELS 3 Zrotation Xrotation Yrotation
                                            End Site
                                            {
                                                OFFSET 0 0 0
                                            }
                                        }
                                    }
                                }
                            }
                        }
                    }
                }
                JOINT r_shoulder_JNT
                {
                    OFFSET -3.66572 11.8125 0.715889
                    CHANNELS 3 Zrotation Xrotation Yrotation
                    JOINT r_arm_JNT
                    {
                        OFFSET -13.2649 -1.1668 -7.57011
                        CHANNELS 3 Zrotation Xrotation Yrotation
                        JOINT r_forearm_JNT
                        {
                            OFFSET -29.4418 0.0109553 -0.00339448
                            CHANNELS 3 Zrotation Xrotation Yrotation
                            JOINT r_hand_JNT
                            {
                                OFFSET -26.1767 0.00972748 -0.00301227
                                CHANNELS 3 Zrotation Xrotation Yrotation
                                JOINT r_handThumb1_JNT
                                {
                                    OFFSET -4.74793 -1.92775 2.54418
                                    CHANNELS 3 Zrotation Xrotation Yrotation
                                    JOINT r_handThumb2_JNT
                                    {
                                        OFFSET -2.70464 -1.23435 2.29378
                                        CHANNELS 3 Zrotation Xrotation Yrotation
                                        JOINT r_handThumb3_JNT
                                        {
                                            OFFSET -3.16441 -1.9004 1.38333
                                            CHANNELS 3 Zrotation Xrotation Yrotation
                                            End Site
                                            {
                                                OFFSET 0 0 0
                                            }
                                        }
                                    }
                                }
                                JOINT r_handIndex1_JNT
                                {
                                    OFFSET -11.7143 -0.404739 2.68616
                                    CHANNELS 3 Zrotation Xrotation Yrotation
                                    JOINT r_handIndex2_JNT
                                    {
                                        OFFSET -4.15651 -0.00733137 0.187699
                                        CHANNELS 3 Zrotation Xrotation Yrotation
                                        JOINT r_handIndex3_JNT
                                        {
                                            OFFSET -3.29072 -0.0367999 0.125611
                                            CHANNELS 3 Zrotation Xrotation Yrotation
                                            End Site
                                            {
                                                OFFSET 0 0 0
                                            }
                                        }
                                    }
                                }
                                JOINT r_handMiddle1_JNT
                                {
                                    OFFSET -11.9538 0.372016 0.155906
                                    CHANNELS 3 Zrotation Xrotation Yrotation
                                    JOINT r_handMiddle2_JNT
                                    {
                                        OFFSET -4.50254 -0.0189424 0.0740178
                                        CHANNELS 3 Zrotation Xrotation Yrotation
                                        JOINT r_handMiddle3_JNT
                                        {
                                            OFFSET -3.54019 -0.0363708 0.0596538
                                            CHANNELS 3 Zrotation Xrotation Yrotation
                                            End Site
                                            {
                                                OFFSET 0 0 0
                                            }
                                        }
                                    }
                                }
                                JOINT r_handRing1_JNT
                                {
                                    OFFSET -11.436 0.0383377 -2.1268
                                    CHANNELS 3 Zrotation Xrotation Yrotation
                                    JOINT r_handRing2_JNT
                                    {
                                        OFFSET -4.29844 -0.0437617 -0.0235535
                                        CHANNELS 3 Zrotation Xrotation Yrotation
                                        JOINT r_handRing3_JNT
                                        {
                                            OFFSET -3.37304 -0.0679612 -0.0101708
                                            CHANNELS 3 Zrotation Xrotation Yrotation
                                            End Site
                                            {
                                                OFFSET 0 0 0
                                            }
                                        }
                                    }
                                }
                                JOINT r_handPinky1_JNT
                                {
                                    OFFSET -10.2986 -0.437462 -3.99699
                                    CHANNELS 3 Zrotation Xrotation Yrotation
                                    JOINT r_handPinky2_JNT
                                    {
                                        OFFSET -3.45854 0.00578165 -0.217007
                                        CHANNELS 3 Zrotation Xrotation Yrotation
                                        JOINT r_handPinky3_JNT
                                        {
                                            OFFSET -2.89182 0.0149727 -0.172819
                                            CHANNELS 3 Zrotation Xrotation Yrotation
                                            End Site
                                            {
                                                OFFSET 0 0 0
                                            }
                                        }
                                    }
                                }
                            }
                        }
                    }
                }
            }
        }
    }
    JOINT l_upleg_JNT
    {
        OFFSET 8.73919 -0.000184774 -5.26197e-06
        CHANNELS 3 Zrotation Xrotation Yrotation
        JOINT l_leg_JNT
        {
            OFFSET 5.05774 -40.9824 -1.23411
            CHANNELS 3 Zrotation Xrotation Yrotation
            JOINT l_foot_JNT
            {
                OFFSET 2.77379 -38.429 -6.08625
                CHANNELS 3 Zrotation Xrotation Yrotation
                JOINT l_toebase_JNT
                {
                    OFFSET 0.807787 -13.0671 15.9427
                    CHANNELS 3 Zrotation Xrotation Yrotation
                    End Site
                    {
                        OFFSET 0 0 0
                    }
                }
            }
        }
    }
    JOINT r_upleg_JNT
    {
        OFFSET -8.73919 0 0
        CHANNELS 3 Zrotation Xrotation Yrotation
        JOINT r_leg_JNT
        {
            OFFSET -5.05777 -40.9826 -1.23412
            CHANNELS 3 Zrotation Xrotation Yrotation
            JOINT r_foot_JNT
            {
                OFFSET -2.7738 -38.4291 -6.08627
                CHANNELS 3 Zrotation Xrotation Yrotation
                JOINT r_toebase_JNT
                {
                    OFFSET -0.807784 -13.0671 15.9426
                    CHANNELS 3 Zrotation Xrotation Yrotation
                    End Site
                    {
                        OFFSET 0 0 0
                    }
                }
            }
        }
    }
}
MOTION
Frames: 6
Frame Time: 0.033333
33.1866 89.4018 -53.521 -24.5149 -4.43691 36.1557 -9.67245 0.0253065 0 -3.80069 1.51855 10.154 3.20165e-06 -1.70755e-06 0 0.481263 -0.331129 -0.362616 16.9642 -18.4528 1.01798 4.26887e-06 -1.02453e-05 0 -36.9013 31.0225 12.677 -17.9834 8.45003 -93.2644 -0 0 0 4.10661 20.7048 -22.2077 -0 0 0 -17.8573 -0.276098 1.75786 -28.275 8.08821 2.04058 -36.5057 10.1191 3.34538 -24.1929 7.00893 1.50243 -32.99 6.21494 1.8418 -42.518 7.6977 2.99814 -28.2478 5.40734 1.36083 -37.5555 -3.48803 -1.18563 -48.3214 -4.27141 -1.91718 -32.18 -3.04858 -0.881149 -41.3237 -7.52308 -2.84075 -53.3109 -9.11138 -4.58093 -35.3664 -6.60321 -2.10701 4.26887e-06 -1.02453e-05 0 -24.5873 -12.356 44.567 -0.361846 -2.57453 27.8378 -1.70755e-06 1.27222e-14 0 -4.10661 20.7048 22.2077 -0 0 0 6.46999 0.0364928 0.645281 10.1822 3.03578 -0.268341 13.0994 3.8897 -0.440574 8.72547 2.60574 -0.201741 11.9089 2.36333 -0.250229 15.3171 3.02424 -0.40926 10.2061 2.02959 -0.181308 13.5898 -1.34603 0.153233 17.4747 -1.71998 0.262442 11.6478 -1.15662 0.118694 14.8908 -2.94217 0.387653 19.1562 -3.75488 0.629316 12.7606 -2.52943 0.285305 35.7248 -34.7393 3.31624 -4.52684 32.1719 4.29024 -3.42693 -6.57879 -7.03049 -0.0721011 -0.540995 -2.97902 -3.74222 3.66399 -3.23668 6.24261 3.95059 0 -5.34037 3.5647 -0.791295 4.69576e-06 -3.41509e-06 0 
33.8393 90.1748 -53.4916 -24.0603 -4.60098 35.8857 -10.1322 0.0279169 0 -3.83794 1.46069 11.436 -4.26887e-07 -1.70755e-06 0 0.9747 -0.476655 -0.740189 17.159 -17.0408 0.805024 -4.26887e-07 -1.70755e-06 0 -37.3907 35.0226 12.0361 -18.6729 8.54585 -89.1512 3.41509e-06 1.70755e-06 0 4.10661 20.7048 -22.2077 -0 0 0 -17.875 -0.27664 1.75876 -28.3033 8.09555 2.04441 -36.5425 10.1277 3.35123 -24.217 7.01544 1.50711 -33.0229 6.22039 1.84519 -42.5605 7.70385 3.0044 -28.2759 5.41225 1.36312 -37.5928 -3.49097 -1.18826 -48.3693 -4.27458 -1.92085 -32.2118 -3.05127 -0.884695 -41.365 -7.52918 -2.84516 -53.3644 -9.11762 -4.58913 -35.4017 -6.60888 -2.11109 -4.26887e-07 -1.70755e-06 0 -22.5861 -12.5619 46.3867 -1.02507 -3.06512 30.989 -0 0 0 -4.10661 20.7048 22.2077 -0 0 0 6.884 0.0413068 0.688699 10.8352 3.22779 -0.306467 13.9405 4.13382 -0.503577 9.28467 2.77106 -0.216705 12.6719 2.51216 -0.276953 16.2992 3.21268 -0.463093 10.8598 2.15796 -0.205584 14.4598 -1.43038 0.185575 18.5936 -1.82628 0.301316 12.3934 -1.22951 0.131221 15.8456 -3.12576 0.437006 20.3859 -3.98526 0.717639 13.5783 -2.68834 0.321425 35.3738 -31.2868 3.13246 -4.41552 29.205 3.89183 -3.39746 -6.09763 -5.39872 -0.0829937 -0.868031 -2.99579 -5.88597 4.39937 -4.38463 6.69736 7.73517 -0.274112 -3.48925 2.28813 -0.835557 1.4941e-06 -8.53774e-07 0 
34.4398 90.8441 -53.2284 -23.6178 -4.79067 35.5335 -10.5245 0.0313948 0 -3.89983 1.39166 12.8225 -7.47052e-07 -3.41509e-06 0 1.51521 -0.651024 -1.15418 17.373 -15.6404 0.594788 -7.47052e-07 -3.41509e-06 0 -37.9494 39.3495 11.2798 -19.412 8.47322 -83.9666 5.08292e-13 -8.53774e-06 0 4.10661 20.7048 -22.2077 -0 0 0 -17.8629 -0.276267 1.75697 -28.2838 8.0905 2.04097 -36.5172 10.1218 3.34772 -24.2004 7.01096 1.50503 -33.0003 6.21664 1.84477 -42.5313 7.69962 3.00023 -28.2565 5.40887 1.36255 -37.5671 -3.48895 -1.18826 -48.3363 -4.2724 -1.91718 -32.1899 -3.04942 -0.881149 -41.3366 -7.52499 -2.84213 -53.3276 -9.11333 -4.58401 -35.3774 -6.60498 -2.10887 -7.47052e-07 -3.41509e-06 0 -20.1886 -12.5509 48.3248 -1.41904 -3.5269 34.2312 1.70755e-06 6.36111e-15 0 -4.10661 20.7048 22.2077 -0 0 0 7.33918 0.0469425 0.731681 11.5533 3.43842 -0.353877 14.8658 4.4012 -0.577428 9.89967 2.95253 -0.265408 13.511 2.67528 -0.311533 17.3795 3.41877 -0.524885 11.5786 2.29876 -0.240663 15.4164 -1.52274 0.213062 19.824 -1.94234 0.335718 13.2132 -1.30941 0.148037 16.8956 -3.32662 0.494163 21.7386 -4.23643 0.809871 14.4776 -2.86243 0.362616 35.3806 -27.8462 2.88179 -4.29686 25.8305 3.52495 -3.64792 -5.01104 -3.81545 -0.0978128 -1.33308 -3.02129 -8.00865 5.15727 -5.58576 6.96475 11.3831 -0.592151 -1.70406 1.09425 -0.563711 -0 -4.26887e-07 0 
34.9896 91.4058 -52.7005 -23.1976 -4.99802 35.0982 -10.8323 0.0350173 0.068528 -3.98351 1.3099 14.3171 2.56132e-06 -3.41509e-06 0 2.09238 -0.834868 -1.59295 17.5875 -14.306 0.387653 2.56132e-06 -3.41509e-06 0 -38.5553 44.0683 10.4189 -20.1575 8.19077 -77.7124 -4.26887e-07 1.70755e-06 0 4.10661 20.7048 -22.2077 -0 0 0 -17.8133 -0.274749 1.75341 -28.2044 8.06991 2.03174 -36.4138 10.0976 3.3292 -24.1326 6.99268 1.49616 -32.908 6.20134 1.832 -42.4119 7.68232 2.98401 -28.1777 5.3951 1.35506 -37.4627 -3.4807 -1.18166 -48.2018 -4.26349 -1.90817 -32.1004 -3.04187 -0.876697 -41.2206 -7.50786 -2.82694 -53.1773 -9.0958 -4.55969 -35.2784 -6.58904 -2.09584 2.56132e-06 -3.41509e-06 0 -17.5572 -12.199 50.3 -1.47516 -3.89736 37.415 -0 0 0 -4.10661 20.7048 22.2077 -0 0 0 7.83159 0.053443 0.782342 12.3306 3.66567 -0.387653 15.8676 4.68917 -0.657299 10.5652 3.14846 -0.298707 14.419 2.85111 -0.362616 18.5486 3.64036 -0.592151 12.3565 2.45068 -0.268341 16.4513 -1.62218 0.234068 21.1553 -2.06689 0.387653 14.1001 -1.39555 0.172458 18.0321 -3.54265 0.563711 23.2031 -4.50549 0.924496 15.4508 -3.04997 0.41684 35.5796 -22.4659 2.65001 -4.0712 17.97 2.87472 -9.16261 -4.01302 -2.58239 4.26887e-07 -1.28066e-06 0 -10.1206 5.91152 -6.71146 7.05225 14.8023 -0.917698 3.41509e-06 -1.70755e-06 0 -3.41509e-06 1.70755e-06 0 
35.495 91.8575 -51.9923 -22.8094 -5.2131 34.581 -11.0418 0.0402286 0.0395647 -4.08485 1.21265 15.9166 -1.06722e-07 -3.08116e-15 0 2.69288 -1.01 -2.04671 17.7808 -13.0858 0.193827 1.38738e-06 5.12264e-06 0 -39.1793 49.2556 9.46303 -20.8317 7.66969 -70.5223 8.53774e-07 6.83019e-06 0 4.10661 20.7048 -22.2077 -0 0 0 -17.7206 -0.271919 1.74446 -28.0556 8.03133 2.00966 -36.2204 10.0523 3.29517 -24.0057 6.95844 1.48197 -32.7354 6.17266 1.81612 -42.1885 7.64987 2.95501 -28.0301 5.3693 1.34171 -37.2672 -3.46521 -1.17101 -47.9499 -4.24676 -1.88921 -31.933 -3.02771 -0.865917 -41.0036 -7.47572 -2.79855 -52.896 -9.06282 -4.51552 -35.0932 -6.55915 -2.07595 1.38738e-06 5.12264e-06 0 -14.8941 -11.4034 52.2236 -1.21513 -4.13331 40.3598 -0 0 0 -4.10661 20.7048 22.2077 -0 0 0 8.3554 0.0608184 0.83086 13.1578 3.90667 -0.454564 16.9342 4.99393 -0.742301 11.2735 3.35642 -0.333378 15.3852 3.03736 -0.413068 19.793 3.87441 -0.678394 13.1841 2.6118 -0.303902 17.5523 -1.72739 0.265408 22.5717 -2.19816 0.438794 15.0437 -1.48681 0.197823 19.2416 -3.77093 0.640411 24.7621 -4.7885 1.05126 16.4865 -3.2485 0.466461 35.0804 -19.5573 2.01782 -4.00677 14.8263 2.63609 -9.02334 -3.33852 -1.62987 -0 0 0 -10.6686 7.09763 -7.66136 7.20897 16.1978 -1.02869 -8.53774e-07 -6.83019e-06 0 -3.84198e-06 1.28066e-06 0 
35.9643 92.1985 -51.2507 -22.4636 -5.42195 33.9845 -11.1442 0.0455179 0 -4.19703 1.10012 17.6151 3.52182e-06 -1.01678e-13 0 3.30142 -1.1615 -2.50796 17.931 -12.0194 0 3.52182e-06 -1.01678e-13 0 -39.7802 54.9949 8.40796 -21.3311 6.92 -62.7209 -0 0 0 4.10661 20.7048 -22.2077 -0 0 0 -17.5839 -0.267771 1.73049 -27.8363 7.97434 1.97945 -35.9353 9.98524 3.24538 -23.8187 6.90789 1.45855 -32.4809 6.13028 1.78701 -41.8593 7.60181 2.91071 -27.8126 5.33119 1.32114 -36.9789 -3.44231 -1.15147 -47.5786 -4.22194 -1.86166 -31.6861 -3.00679 -0.856831 -40.6838 -7.42814 -2.75713 -52.4815 -9.0138 -4.45021 -34.8201 -6.51497 -2.04518 3.52182e-06 -1.01678e-13 0 -12.3887 -10.1189 54.0205 -0.729008 -4.22518 42.8932 2.54444e-14 -6.83019e-06 0.0559529 -4.10661 20.7048 22.2077 -0 0 0 8.90312 0.0690374 0.887345 14.0233 4.15781 -0.514341 18.0505 5.31076 -0.843017 12.0144 3.57332 -0.381548 16.3959 3.23119 -0.468136 21.0949 4.11721 -0.767189 14.0497 2.77968 -0.340348 18.7038 -1.83671 0.298707 24.053 -2.33398 0.497321 16.0304 -1.5818 0.209357 20.507 -4.00784 0.724154 26.3936 -5.08064 1.19352 17.5698 -3.45496 0.538138 34.6877 -16.7097 1.31401 -3.95999 11.8905 2.41511 -8.91777 -2.82553 -0.517376 1.28066e-06 4.26887e-07 0 -11.2294 8.2236 -8.32575 7.25059 17.2483 -1.10215 5.76297e-06 -1.79292e-05 0 1.06722e-06 1.79292e-05 0 
